<svg width="21" height="20" viewBox="0 0 21 20" fill="none" xmlns="http://www.w3.org/2000/svg">
<path d="M9.83954 0.532673C10.0474 -0.107126 10.9526 -0.107125 11.1605 0.532674L13.1505 6.65744C13.2435 6.94356 13.5101 7.13729 13.811 7.13729H20.2509C20.9237 7.13729 21.2034 7.99813 20.6591 8.39355L15.4491 12.1789C15.2057 12.3557 15.1038 12.6691 15.1968 12.9553L17.1869 19.08C17.3947 19.7198 16.6625 20.2519 16.1182 19.8565L10.9082 16.0711C10.6648 15.8943 10.3352 15.8943 10.0918 16.0711L4.88178 19.8565C4.33753 20.2519 3.60526 19.7198 3.81314 19.08L5.8032 12.9553C5.89616 12.6691 5.79432 12.3557 5.55092 12.1789L0.340889 8.39355C-0.203357 7.99813 0.0763494 7.13729 0.749074 7.13729H7.18903C7.48988 7.13729 7.75652 6.94356 7.84949 6.65744L9.83954 0.532673Z" fill="#F9CD31"/>
</svg>
